<svg aria-hidden="true" style="position: absolute; width: 0; height: 0; overflow: hidden;" version="1.1" xmlns="http://www.w3.org/2000/svg" xmlns:xlink="http://www.w3.org/1999/xlink">
<defs>
<symbol id="icon-icons" viewBox="0 0 43 32">
<path stroke-linejoin="round" stroke-linecap="round" stroke-miterlimit="4" stroke-width="5.3333" d="M3.556 2.667h35.555M3.556 16h17.777M3.555 29.333h35.556"></path>
</symbol>
<symbol id="icon-x-max" viewBox="0 0 32 32">
      <path fill="none" stroke="#fbfbfb" stroke-linecap="round" stroke-linejoin="round" stroke-width="3.2" d="M24 8 8 24M8 8l16 16" style="stroke:var(--color1, #fbfbfb)"/>
    </symbol>
<symbol id="icon-logo" viewBox="0 0 32 32">
<path d="M29.083 0.315h-4.011c-1.236 0-2.24 0.981-2.24 2.194v3.929c0 1.214 1.004 2.197 2.24 2.197h4.011c1.237 0 2.24-0.983 2.24-2.196v-3.929c0-1.214-1.003-2.196-2.24-2.196zM6.731 23.040h-4.318c-1.333 0-2.412 0.983-2.412 2.196v3.929c0 1.212 1.081 2.196 2.412 2.196h4.318c1.333 0 2.412-0.983 2.412-2.196v-3.929c0-1.212-1.081-2.196-2.412-2.196zM6.249 11.582h-4.009c-1.237 0-2.24 0.983-2.24 2.196v3.929c0 1.212 1.003 2.196 2.24 2.196h4.009c1.237 0 2.24-0.983 2.24-2.196v-3.929c0-1.212-1.003-2.196-2.24-2.196zM17.765 22.978h-4.009c-1.237 0-2.24 0.983-2.24 2.196v3.929c0 1.212 1.003 2.196 2.24 2.196h4.009c1.237 0 2.24-0.983 2.24-2.196v-3.929c0-1.212-1.003-2.196-2.24-2.196zM6.249 0.087h-4.009c-1.237 0-2.24 0.98-2.24 2.194v3.929c0 1.216 1.003 2.199 2.24 2.199h4.009c1.237 0 2.24-0.983 2.24-2.196v-3.929c0.002-1.218-1.001-2.199-2.238-2.199zM18.076 11.698h-4.011c-1.237 0-2.24 0.983-2.24 2.196v3.929c0 1.212 1.004 2.196 2.24 2.196h4.011c1.237 0 2.24-0.983 2.24-2.196v-3.929c0-1.212-1.003-2.196-2.24-2.196zM29.333 22.978h-4.009c-1.237 0-2.24 0.983-2.24 2.196v3.929c0 1.212 1.003 2.196 2.24 2.196h4.009c1.237 0 2.24-0.983 2.24-2.196v-3.929c0-1.212-1.003-2.196-2.24-2.196zM17.591 0.224h-4.011c-1.237 0-2.24 0.983-2.24 2.196v3.929c0 1.212 1.004 2.196 2.24 2.196h4.011c1.237 0 2.24-0.983 2.24-2.196v-3.931c0-1.212-1.003-2.196-2.24-2.196zM29.044 11.925h-4.009c-1.237 0-2.24 0.983-2.24 2.196v3.929c0 1.212 1.003 2.196 2.24 2.196h4.009c1.237 0 2.24-0.983 2.24-2.196v-3.929c0-1.212-1.003-2.196-2.24-2.196z"></path>
</symbol>

<symbol id="icon-vector" viewBox="0 0 32 32">
<path d="M29.082 0.314h-4.010c-0.006-0-0.013-0-0.020-0-1.218 0-2.206 0.98-2.22 2.195v3.929c0.014 1.216 1.002 2.196 2.22 2.196 0.007 0 0.014-0 0.021-0h4.009c0.006 0 0.013 0 0.020 0 1.218 0 2.206-0.98 2.22-2.195v-3.929c-0.014-1.216-1.002-2.196-2.22-2.196-0.007 0-0.014 0-0.021 0h0.001zM6.73 23.040h-4.318c-1.332 0-2.412 0.984-2.412 2.196v3.928c0 1.214 1.080 2.196 2.412 2.196h4.32c1.33 0 2.41-0.982 2.41-2.196v-3.928c0-1.214-1.080-2.196-2.412-2.196zM6.25 11.58h-4.010c-1.238 0-2.24 0.986-2.24 2.2v3.928c0.013 1.216 1.002 2.196 2.22 2.196 0.007 0 0.014-0 0.021-0h4.009c0.006 0 0.013 0 0.020 0 1.218 0 2.206-0.98 2.22-2.195v-3.929c0-1.214-1.004-2.196-2.24-2.196zM17.766 22.98h-4.010c-1.236 0-2.24 0.98-2.24 2.194v3.928c0.014 1.216 1.002 2.196 2.22 2.196 0.007 0 0.014-0 0.021-0h4.009c0.006 0 0.013 0 0.020 0 1.218 0 2.206-0.98 2.22-2.195v-3.929c-0.014-1.216-1.002-2.196-2.22-2.196-0.007 0-0.014 0-0.021 0h0.001zM6.25 0.086h-4.010c-1.238 0-2.24 0.984-2.24 2.196v3.928c0.013 1.216 1.002 2.196 2.22 2.196 0.007 0 0.014-0 0.021-0h4.009c0.006 0 0.013 0 0.020 0 1.218 0 2.206-0.98 2.22-2.195v-3.929c0-1.212-1.004-2.196-2.24-2.196zM18.076 11.698h-4.010c-1.236 0-2.24 0.982-2.24 2.194v3.93c0.014 1.216 1.002 2.196 2.22 2.196 0.007 0 0.014-0 0.021-0h4.009c1.238 0 2.24-0.984 2.24-2.196v-3.93c0-1.212-1.002-2.194-2.24-2.194zM29.334 22.98h-4.010c-1.238 0-2.24 0.98-2.24 2.194v3.928c0.014 1.216 1.002 2.196 2.22 2.196 0.007 0 0.014-0 0.021-0h4.009c0.006 0 0.013 0 0.020 0 1.218 0 2.206-0.98 2.22-2.195v-3.929c0-1.214-1.004-2.196-2.24-2.196zM17.59 0.224h-4.008c-1.238 0-2.24 0.982-2.24 2.196v3.928c0.014 1.216 1.002 2.196 2.22 2.196 0.007 0 0.014-0 0.021-0h4.007c0.006 0 0.013 0 0.020 0 1.218 0 2.206-0.98 2.22-2.195v-3.929c0-1.214-1.002-2.196-2.24-2.196zM29.044 11.926h-4.010c-1.236 0-2.24 0.982-2.24 2.196v3.928c0.014 1.216 1.002 2.196 2.22 2.196 0.007 0 0.014-0 0.021-0h4.009c0.006 0 0.013 0 0.020 0 1.218 0 2.206-0.98 2.22-2.195v-3.929c0-1.214-1.004-2.196-2.24-2.196z"></path>
</symbol>

<symbol id="icon-GreenHarvest" viewBox="0 0 245 32">
<path d="M15.652 20.87c-6.063 0-10.087-4.090-10.087-10.463 0-6.233 3.965-10.407 9.944-10.407 5.030 0 8.565 2.866 9.082 7.179h-4.168c-0.402-2.477-2.328-3.868-4.914-3.868-3.622 0-5.777 2.838-5.777 7.096 0 4.675 2.414 7.151 5.92 7.151 3.047 0 5.002-1.67 5.203-4.174v-0.278h-5.607v-3.117h9.485v2.56c-0.171 4.981-3.794 8.32-9.081 8.32zM27.247 20.591v-20.313h10.087c5.145 0 7.185 2.421 7.185 5.927 0 3.144-2.298 4.647-4.971 5.009v0.083c1.724 0.417 2.5 1.336 3.218 3.144 0.92 2.282 1.064 5.009 2.241 5.983v0.167h-4.598c-0.977-0.946-1.206-3.923-1.724-5.732-0.518-1.864-1.638-2.087-3.736-2.087h-3.679v7.819h-4.024zM31.271 9.544h5.632c2.357 0 3.449-1.336 3.449-3.061 0-1.892-1.35-2.977-3.449-2.977h-5.632v6.038zM47.192 20.591v-20.313h14.342v3.228h-10.319v4.842h9.312v3.228h-9.312v5.704h10.461v3.311h-14.483zM64.47 20.591v-20.313h14.34v3.228h-10.317v4.842h9.311v3.228h-9.311v5.704h10.461v3.311h-14.485zM81.749 20.591v-20.313h4.885l6.957 11.214c2.126 3.395 2.385 4.508 2.385 4.508h0.086l-0.058-15.722h4.024v20.313h-4.914l-7.214-11.548c-1.638-2.616-2.069-4.202-2.069-4.202h-0.057v15.75h-4.024zM103.054 20.591v-4.118h4.196v4.118h-4.196zM110.271 20.591v-20.313h4.024v8.125h9.628v-8.125h4.024v20.313h-4.022v-8.96h-9.628v8.96h-4.024zM129.665 20.591l8.047-20.313h4.369l8.161 20.313h-4.31l-1.696-4.675h-8.708l-1.696 4.675h-4.167zM136.678 12.689h6.41l-1.869-5.009c-1.293-3.701-1.322-4.369-1.322-4.369h-0.057s0 0.668-1.294 4.369l-1.869 5.009zM151.957 20.591v-20.313h10.087c5.145 0 7.186 2.421 7.186 5.927 0 3.144-2.3 4.647-4.973 5.009v0.083c1.724 0.417 2.5 1.336 3.219 3.144 0.92 2.282 1.063 5.009 2.241 5.983v0.167h-4.598c-0.978-0.946-1.208-3.923-1.725-5.732-0.518-1.864-1.638-2.087-3.736-2.087h-3.679v7.819h-4.024zM155.981 9.544h5.633c2.355 0 3.448-1.336 3.448-3.061 0-1.892-1.35-2.977-3.448-2.977h-5.633v6.038zM176.167 20.591l-7.702-20.313h4.312s4.167 11.381 4.598 12.772c0.69 2.226 1.006 3.367 1.006 3.367h0.057c-0.028 0 0.288-1.141 1.006-3.367 0.461-1.391 4.455-12.772 4.455-12.772h4.167l-7.414 20.313h-4.484zM189.713 20.591v-20.313h14.342v3.228h-10.318v4.842h9.312v3.228h-9.312v5.704h10.461v3.311h-14.485zM214.187 20.87c-5.345 0-8.565-2.81-8.565-6.984h4.598c-0.057 2.365 1.553 3.673 3.967 3.673 2.557 0 3.765-0.974 3.765-2.421s-1.035-2.059-4.714-3.033c-3.363-0.89-7.041-1.948-7.041-6.122 0-3.311 2.99-5.983 7.702-5.983 4.857 0 7.961 2.643 7.961 6.372h-4.455c-0.028-1.976-1.408-3.061-3.506-3.061-2.040 0-3.391 1.002-3.391 2.337 0 1.586 1.12 2.087 4.051 2.894 4.339 1.169 7.846 1.642 7.846 6.177 0 3.645-3.42 6.15-8.218 6.15zM228.959 20.591v-17.002h-6.351v-3.311h16.697v3.311h-6.322v17.002h-4.024z"></path>

</symbol>

    <symbol id="icon-menu" viewBox="0 0 32 32">
      <path stroke-linecap="round" stroke-linejoin="round" stroke-width="3.2" d="M5.333 8h21.333M5.333 16H16M5.333 24h21.333"/>
    </symbol>
</defs>
</svg>
